<svg xmlns="http://www.w3.org/2000/svg" xmlns:xlink="http://www.w3.org/1999/xlink" width="500" zoomAndPan="magnify" viewBox="0 0 375 374.999991" height="500" preserveAspectRatio="xMidYMid meet" version="1.0"><defs><g/><clipPath id="7b97fab9c3"><path d="M 97 139.121094 L 140 139.121094 L 140 229 L 97 229 Z M 97 139.121094 " clip-rule="nonzero"/></clipPath><clipPath id="eb43216b17"><path d="M 107 150 L 157.046875 150 L 157.046875 235.871094 L 107 235.871094 Z M 107 150 " clip-rule="nonzero"/></clipPath><clipPath id="686b64ee64"><path d="M 48 139.121094 L 91 139.121094 L 91 229 L 48 229 Z M 48 139.121094 " clip-rule="nonzero"/></clipPath><clipPath id="8ded61300c"><path d="M 31.046875 150 L 81 150 L 81 235.871094 L 31.046875 235.871094 Z M 31.046875 150 " clip-rule="nonzero"/></clipPath></defs><g clip-path="url(#7b97fab9c3)"><path fill="#d1c4e9" d="M 97.152344 156.523438 C 97.152344 156.523438 107.726562 145.398438 114.847656 142.5 C 121.96875 139.601562 139.882812 139.125 139.882812 139.125 L 139.882812 211.386719 C 139.882812 211.386719 123.601562 212.214844 116.476562 215.113281 C 109.355469 218.011719 97.152344 228.78125 97.152344 228.78125 Z M 97.152344 156.523438 " fill-opacity="1" fill-rule="nonzero"/></g><path fill="#b39ddb" d="M 148.859375 144.449219 C 148.859375 144.449219 146.097656 144.527344 142.332031 144.789062 L 142.332031 214.226562 C 142.332031 214.226562 126.046875 215.050781 118.925781 217.953125 C 115.21875 219.460938 106.476562 224.519531 102.453125 227.664062 L 100.414062 234.105469 C 100.414062 234.105469 114.25 226.53125 121.371094 223.632812 C 128.496094 220.734375 148.855469 216.710938 148.855469 216.710938 Z M 148.859375 144.449219 " fill-opacity="1" fill-rule="nonzero"/><g clip-path="url(#eb43216b17)"><path fill="#7359a6" d="M 157.015625 150.484375 C 157.015625 150.484375 155.015625 150.542969 152.121094 150.71875 L 152.121094 219.550781 C 152.121094 219.550781 135.835938 220.378906 128.714844 223.277344 C 124.484375 225 114.804688 228.425781 110.609375 231.796875 L 107.347656 235.878906 C 107.347656 235.878906 126.488281 229.375 133.609375 226.472656 C 140.730469 223.574219 157.015625 222.746094 157.015625 222.746094 Z M 157.015625 150.484375 " fill-opacity="1" fill-rule="nonzero"/></g><g clip-path="url(#686b64ee64)"><path fill="#d1c4e9" d="M 90.945312 156.523438 C 90.945312 156.523438 80.371094 145.398438 73.25 142.5 C 66.128906 139.601562 48.214844 139.125 48.214844 139.125 L 48.214844 211.386719 C 48.214844 211.386719 64.496094 212.214844 71.617188 215.113281 C 78.742188 218.011719 90.945312 228.78125 90.945312 228.78125 Z M 90.945312 156.523438 " fill-opacity="1" fill-rule="nonzero"/></g><path fill="#b39ddb" d="M 39.238281 144.449219 C 39.238281 144.449219 41.996094 144.527344 45.765625 144.789062 L 45.765625 214.226562 C 45.765625 214.226562 62.046875 215.050781 69.171875 217.953125 C 72.878906 219.460938 81.621094 224.519531 85.644531 227.664062 L 87.683594 234.105469 C 87.683594 234.105469 73.84375 226.53125 66.722656 223.632812 C 59.601562 220.734375 39.238281 216.710938 39.238281 216.710938 Z M 39.238281 144.449219 " fill-opacity="1" fill-rule="nonzero"/><g clip-path="url(#8ded61300c)"><path fill="#7359a6" d="M 31.082031 150.484375 C 31.082031 150.484375 33.078125 150.542969 35.976562 150.71875 L 35.976562 219.550781 C 35.976562 219.550781 52.261719 220.378906 59.382812 223.277344 C 63.613281 225 73.292969 228.425781 77.484375 231.796875 L 80.75 235.878906 C 80.75 235.878906 61.609375 229.375 54.488281 226.472656 C 47.367188 223.578125 31.082031 222.746094 31.082031 222.746094 Z M 31.082031 150.484375 " fill-opacity="1" fill-rule="nonzero"/></g><g fill="#000000" fill-opacity="1"><g transform="translate(170.122349, 199.927032)"><g><path d="M 12.09375 -40.203125 L 12.09375 -8.046875 L 25.921875 -8.046875 L 25.921875 0 L 2.921875 0 L 2.921875 -40.203125 Z M 12.09375 -40.203125 "/></g></g></g><g fill="#000000" fill-opacity="1"><g transform="translate(197.651108, 199.927032)"><g><path d="M 3.75 -38.9375 C 4.757812 -39.945312 5.960938 -40.453125 7.359375 -40.453125 C 8.753906 -40.453125 9.953125 -39.945312 10.953125 -38.9375 C 11.960938 -37.925781 12.46875 -36.722656 12.46875 -35.328125 C 12.46875 -33.929688 11.960938 -32.726562 10.953125 -31.71875 C 9.953125 -30.71875 8.753906 -30.21875 7.359375 -30.21875 C 5.960938 -30.21875 4.757812 -30.71875 3.75 -31.71875 C 2.738281 -32.726562 2.234375 -33.929688 2.234375 -35.328125 C 2.234375 -36.722656 2.738281 -37.925781 3.75 -38.9375 Z M 2.921875 -25 L 2.921875 0 L 11.546875 0 L 11.546875 -25 Z M 2.921875 -25 "/></g></g></g><g fill="#000000" fill-opacity="1"><g transform="translate(212.365587, 199.927032)"><g><path d="M 28.65625 -21.875 C 31 -19.3125 32.171875 -16.175781 32.171875 -12.46875 C 32.171875 -8.769531 31 -5.644531 28.65625 -3.09375 C 26.3125 -0.539062 23.335938 0.734375 19.734375 0.734375 C 16.421875 0.734375 13.691406 -0.453125 11.546875 -2.828125 L 11.453125 -2.828125 L 11.453125 0 L 2.921875 0 L 2.921875 -41.90625 L 11.546875 -41.90625 L 11.546875 -22.609375 C 13.691406 -24.691406 16.421875 -25.734375 19.734375 -25.734375 C 23.335938 -25.734375 26.3125 -24.445312 28.65625 -21.875 Z M 21.390625 -8.25 C 22.460938 -9.34375 23 -10.75 23 -12.46875 C 23 -14.195312 22.4375 -15.613281 21.3125 -16.71875 C 20.195312 -17.820312 18.8125 -18.375 17.15625 -18.375 C 15.53125 -18.375 14.15625 -17.820312 13.03125 -16.71875 C 11.914062 -15.613281 11.359375 -14.195312 11.359375 -12.46875 C 11.359375 -10.78125 11.898438 -9.382812 12.984375 -8.28125 C 14.078125 -7.175781 15.46875 -6.625 17.15625 -6.625 C 18.90625 -6.625 20.316406 -7.164062 21.390625 -8.25 Z M 21.390625 -8.25 "/></g></g></g><g fill="#000000" fill-opacity="1"><g transform="translate(245.643701, 199.927032)"><g><path d="M 2.921875 0 L 2.921875 -25 L 11.546875 -25 L 11.546875 -21.390625 L 11.640625 -21.390625 C 11.710938 -21.523438 11.820312 -21.6875 11.96875 -21.875 C 12.113281 -22.070312 12.425781 -22.414062 12.90625 -22.90625 C 13.394531 -23.394531 13.914062 -23.832031 14.46875 -24.21875 C 15.019531 -24.613281 15.734375 -24.960938 16.609375 -25.265625 C 17.492188 -25.578125 18.390625 -25.734375 19.296875 -25.734375 C 20.242188 -25.734375 21.171875 -25.601562 22.078125 -25.34375 C 22.984375 -25.082031 23.648438 -24.820312 24.078125 -24.5625 L 24.75 -24.171875 L 21.15625 -16.859375 C 20.082031 -17.773438 18.585938 -18.234375 16.671875 -18.234375 C 15.628906 -18.234375 14.734375 -18.003906 13.984375 -17.546875 C 13.234375 -17.085938 12.703125 -16.53125 12.390625 -15.875 C 12.085938 -15.226562 11.867188 -14.675781 11.734375 -14.21875 C 11.609375 -13.769531 11.546875 -13.414062 11.546875 -13.15625 L 11.546875 0 Z M 2.921875 0 "/></g></g></g><g fill="#000000" fill-opacity="1"><g transform="translate(269.907988, 199.927032)"><g><path d="M 4.625 -3.09375 C 2.289062 -5.644531 1.125 -8.769531 1.125 -12.46875 C 1.125 -16.175781 2.289062 -19.3125 4.625 -21.875 C 6.96875 -24.445312 9.941406 -25.734375 13.546875 -25.734375 C 16.859375 -25.734375 19.585938 -24.691406 21.734375 -22.609375 L 21.734375 -25 L 30.359375 -25 L 30.359375 0 L 21.828125 0 L 21.828125 -2.828125 L 21.734375 -2.828125 C 19.585938 -0.453125 16.859375 0.734375 13.546875 0.734375 C 9.941406 0.734375 6.96875 -0.539062 4.625 -3.09375 Z M 11.953125 -16.71875 C 10.835938 -15.613281 10.28125 -14.195312 10.28125 -12.46875 C 10.28125 -10.75 10.816406 -9.34375 11.890625 -8.25 C 12.960938 -7.164062 14.375 -6.625 16.125 -6.625 C 17.820312 -6.625 19.210938 -7.175781 20.296875 -8.28125 C 21.390625 -9.382812 21.9375 -10.78125 21.9375 -12.46875 C 21.9375 -14.195312 21.375 -15.613281 20.25 -16.71875 C 19.125 -17.820312 17.75 -18.375 16.125 -18.375 C 14.46875 -18.375 13.078125 -17.820312 11.953125 -16.71875 Z M 11.953125 -16.71875 "/></g></g></g><g fill="#000000" fill-opacity="1"><g transform="translate(303.186102, 199.927032)"><g><path d="M 2.921875 0 L 2.921875 -25 L 11.546875 -25 L 11.546875 -21.390625 L 11.640625 -21.390625 C 11.710938 -21.523438 11.820312 -21.6875 11.96875 -21.875 C 12.113281 -22.070312 12.425781 -22.414062 12.90625 -22.90625 C 13.394531 -23.394531 13.914062 -23.832031 14.46875 -24.21875 C 15.019531 -24.613281 15.734375 -24.960938 16.609375 -25.265625 C 17.492188 -25.578125 18.390625 -25.734375 19.296875 -25.734375 C 20.242188 -25.734375 21.171875 -25.601562 22.078125 -25.34375 C 22.984375 -25.082031 23.648438 -24.820312 24.078125 -24.5625 L 24.75 -24.171875 L 21.15625 -16.859375 C 20.082031 -17.773438 18.585938 -18.234375 16.671875 -18.234375 C 15.628906 -18.234375 14.734375 -18.003906 13.984375 -17.546875 C 13.234375 -17.085938 12.703125 -16.53125 12.390625 -15.875 C 12.085938 -15.226562 11.867188 -14.675781 11.734375 -14.21875 C 11.609375 -13.769531 11.546875 -13.414062 11.546875 -13.15625 L 11.546875 0 Z M 2.921875 0 "/></g></g></g><g fill="#000000" fill-opacity="1"><g transform="translate(327.450389, 199.927032)"><g><path d="M 21.875 -25 L 31.828125 -25 L 12.1875 12.671875 L 2.234375 12.671875 L 10.875 -3.90625 L -0.96875 -25 L 8.96875 -25 L 15.9375 -12.1875 Z M 21.875 -25 "/></g></g></g></svg>